<mxfile host="app.diagrams.net" agent="Mozilla/5.0 (Windows NT 10.0; Win64; x64) AppleWebKit/537.36 (KHTML, like Gecko) Chrome/133.0.0.0 Safari/537.36" version="26.0.14">
  <diagram name="Page-1" id="z0avYNaSjJtAMFW2c0-u">
    <mxGraphModel dx="3991" dy="2102" grid="0" gridSize="10" guides="1" tooltips="1" connect="1" arrows="1" fold="1" page="0" pageScale="1" pageWidth="827" pageHeight="1169" math="0" shadow="0">
      <root>
        <mxCell id="0" />
        <mxCell id="1" parent="0" />
        <mxCell id="KOqBi4OoSSzoHojaQv4j-55" value="" style="rounded=1;whiteSpace=wrap;html=1;" vertex="1" parent="1">
          <mxGeometry x="-707" y="790" width="2264" height="1231" as="geometry" />
        </mxCell>
        <mxCell id="xQ3L2eBlVYDOcQQso6A4-12" value="" style="rounded=1;whiteSpace=wrap;html=1;" parent="1" vertex="1">
          <mxGeometry x="-581" y="-175" width="2002" height="816" as="geometry" />
        </mxCell>
        <mxCell id="RMT1xp3G2gNs8e-a4C3r-3" style="edgeStyle=orthogonalEdgeStyle;rounded=0;orthogonalLoop=1;jettySize=auto;html=1;entryX=0;entryY=0.5;entryDx=0;entryDy=0;" parent="1" source="RMT1xp3G2gNs8e-a4C3r-1" target="RMT1xp3G2gNs8e-a4C3r-2" edge="1">
          <mxGeometry relative="1" as="geometry" />
        </mxCell>
        <mxCell id="RMT1xp3G2gNs8e-a4C3r-1" value="&lt;div style=&quot;background-color:#1e1f22;color:#bcbec4&quot;&gt;&lt;pre style=&quot;font-family:&#39;JetBrains Mono&#39;,monospace;font-size:9.8pt;&quot;&gt;ms-integracion-message-producer&lt;/pre&gt;&lt;/div&gt;" style="ellipse;whiteSpace=wrap;html=1;" parent="1" vertex="1">
          <mxGeometry x="-260" y="515" width="280" height="80" as="geometry" />
        </mxCell>
        <mxCell id="RMT1xp3G2gNs8e-a4C3r-2" value="TOPIC:&amp;nbsp;&lt;span style=&quot;font-family: &amp;quot;JetBrains Mono&amp;quot;, monospace; font-size: 9.8pt; background-color: rgb(30, 31, 34); color: rgb(188, 190, 196);&quot;&gt;topic-pedido-resumen&lt;/span&gt;" style="shape=process;whiteSpace=wrap;html=1;backgroundOutline=1;" parent="1" vertex="1">
          <mxGeometry x="174" y="525" width="240" height="60" as="geometry" />
        </mxCell>
        <mxCell id="RMT1xp3G2gNs8e-a4C3r-4" value="&lt;div style=&quot;background-color:#1e1f22;color:#bcbec4&quot;&gt;&lt;pre style=&quot;font-family:&#39;Inter&#39;;font-size:9.8pt;&quot;&gt;ms-integracion-message-command&lt;/pre&gt;&lt;/div&gt;" style="ellipse;whiteSpace=wrap;html=1;" parent="1" vertex="1">
          <mxGeometry x="925" y="510" width="260" height="80" as="geometry" />
        </mxCell>
        <mxCell id="RMT1xp3G2gNs8e-a4C3r-5" value="REDIS:&amp;nbsp;&lt;span style=&quot;font-family: &amp;quot;JetBrains Mono&amp;quot;, monospace; font-size: 9.8pt; background-color: rgb(30, 31, 34); color: rgb(188, 190, 196);&quot;&gt;ms-reporte-pedidos&lt;/span&gt;" style="shape=cylinder3;whiteSpace=wrap;html=1;boundedLbl=1;backgroundOutline=1;size=15;" parent="1" vertex="1">
          <mxGeometry x="1274" y="505" width="110" height="80" as="geometry" />
        </mxCell>
        <mxCell id="RMT1xp3G2gNs8e-a4C3r-6" style="edgeStyle=orthogonalEdgeStyle;rounded=0;orthogonalLoop=1;jettySize=auto;html=1;" parent="1" source="RMT1xp3G2gNs8e-a4C3r-4" target="RMT1xp3G2gNs8e-a4C3r-5" edge="1">
          <mxGeometry relative="1" as="geometry">
            <mxPoint x="1043" y="684" as="targetPoint" />
          </mxGeometry>
        </mxCell>
        <mxCell id="RMT1xp3G2gNs8e-a4C3r-9" style="edgeStyle=orthogonalEdgeStyle;rounded=0;orthogonalLoop=1;jettySize=auto;html=1;entryX=0;entryY=0.5;entryDx=0;entryDy=0;" parent="1" source="RMT1xp3G2gNs8e-a4C3r-7" target="RMT1xp3G2gNs8e-a4C3r-4" edge="1">
          <mxGeometry relative="1" as="geometry" />
        </mxCell>
        <mxCell id="RMT1xp3G2gNs8e-a4C3r-7" value="&lt;div style=&quot;background-color:#1e1f22;color:#bcbec4&quot;&gt;&lt;pre style=&quot;font-family:&#39;Inter&#39;;font-size:9.8pt;&quot;&gt;ms-integracion-message-consumer&lt;/pre&gt;&lt;/div&gt;" style="ellipse;whiteSpace=wrap;html=1;" parent="1" vertex="1">
          <mxGeometry x="570" y="510" width="220" height="80" as="geometry" />
        </mxCell>
        <mxCell id="RMT1xp3G2gNs8e-a4C3r-8" style="edgeStyle=orthogonalEdgeStyle;rounded=0;orthogonalLoop=1;jettySize=auto;html=1;entryX=1.001;entryY=0.4;entryDx=0;entryDy=0;entryPerimeter=0;" parent="1" source="RMT1xp3G2gNs8e-a4C3r-7" target="RMT1xp3G2gNs8e-a4C3r-2" edge="1">
          <mxGeometry relative="1" as="geometry" />
        </mxCell>
        <mxCell id="RMT1xp3G2gNs8e-a4C3r-14" style="edgeStyle=orthogonalEdgeStyle;rounded=0;orthogonalLoop=1;jettySize=auto;html=1;" parent="1" source="RMT1xp3G2gNs8e-a4C3r-10" target="RMT1xp3G2gNs8e-a4C3r-13" edge="1">
          <mxGeometry relative="1" as="geometry">
            <Array as="points">
              <mxPoint x="-290" y="300" />
              <mxPoint x="-290" y="300" />
            </Array>
          </mxGeometry>
        </mxCell>
        <mxCell id="RMT1xp3G2gNs8e-a4C3r-16" style="edgeStyle=orthogonalEdgeStyle;rounded=0;orthogonalLoop=1;jettySize=auto;html=1;entryX=0;entryY=0.5;entryDx=0;entryDy=0;" parent="1" source="RMT1xp3G2gNs8e-a4C3r-10" target="RMT1xp3G2gNs8e-a4C3r-15" edge="1">
          <mxGeometry relative="1" as="geometry" />
        </mxCell>
        <mxCell id="RMT1xp3G2gNs8e-a4C3r-10" value="&lt;div style=&quot;background-color:#1e1f22;color:#bcbec4&quot;&gt;&lt;pre style=&quot;font-family:&#39;Inter&#39;;font-size:9.8pt;&quot;&gt;ms-negocio-gestion-pedidos&lt;/pre&gt;&lt;/div&gt;" style="ellipse;whiteSpace=wrap;html=1;" parent="1" vertex="1">
          <mxGeometry x="-240" y="260" width="190" height="80" as="geometry" />
        </mxCell>
        <mxCell id="RMT1xp3G2gNs8e-a4C3r-11" value="Mysql:&amp;nbsp;&lt;span style=&quot;font-family: &amp;quot;JetBrains Mono&amp;quot;, monospace; font-size: 9.8pt; background-color: rgb(30, 31, 34); color: rgb(188, 190, 196);&quot;&gt;db_curs-000261_pedidos&lt;/span&gt;" style="shape=cylinder3;whiteSpace=wrap;html=1;boundedLbl=1;backgroundOutline=1;size=15;" parent="1" vertex="1">
          <mxGeometry x="-520" y="388" width="140" height="80" as="geometry" />
        </mxCell>
        <mxCell id="RMT1xp3G2gNs8e-a4C3r-20" style="edgeStyle=orthogonalEdgeStyle;rounded=0;orthogonalLoop=1;jettySize=auto;html=1;" parent="1" source="RMT1xp3G2gNs8e-a4C3r-13" target="RMT1xp3G2gNs8e-a4C3r-19" edge="1">
          <mxGeometry relative="1" as="geometry" />
        </mxCell>
        <mxCell id="RMT1xp3G2gNs8e-a4C3r-13" value="&lt;div style=&quot;background-color:#1e1f22;color:#bcbec4&quot;&gt;&lt;pre style=&quot;font-family:&#39;Inter&#39;;font-size:9.8pt;&quot;&gt;ms-negocio-gestion-clientes&lt;/pre&gt;&lt;/div&gt;" style="ellipse;whiteSpace=wrap;html=1;" parent="1" vertex="1">
          <mxGeometry x="-540" y="260" width="180" height="80" as="geometry" />
        </mxCell>
        <mxCell id="RMT1xp3G2gNs8e-a4C3r-15" value="&lt;div style=&quot;background-color:#1e1f22;color:#bcbec4&quot;&gt;&lt;pre style=&quot;font-family:&#39;Inter&#39;;font-size:9.8pt;&quot;&gt;ms-negocio-gestion-productos&lt;/pre&gt;&lt;/div&gt;" style="ellipse;whiteSpace=wrap;html=1;" parent="1" vertex="1">
          <mxGeometry x="120" y="260" width="180" height="80" as="geometry" />
        </mxCell>
        <mxCell id="RMT1xp3G2gNs8e-a4C3r-17" value="Mysql:&amp;nbsp;&lt;span style=&quot;font-family: &amp;quot;JetBrains Mono&amp;quot;, monospace; font-size: 9.8pt; background-color: light-dark(rgb(30, 31, 34), rgb(209, 210, 212)); color: light-dark(rgb(188, 190, 196), rgb(73, 74, 79));&quot;&gt;db_curs-curs_000261_arqmseda_productos&lt;/span&gt;&lt;span style=&quot;background-color: light-dark(rgb(30, 31, 34), rgb(209, 210, 212)); color: light-dark(rgb(188, 190, 196), rgb(73, 74, 79)); font-family: &amp;quot;JetBrains Mono&amp;quot;, monospace; font-size: 9.8pt;&quot;&gt;s&lt;/span&gt;" style="shape=cylinder3;whiteSpace=wrap;html=1;boundedLbl=1;backgroundOutline=1;size=15;" parent="1" vertex="1">
          <mxGeometry x="85" y="60" width="250" height="80" as="geometry" />
        </mxCell>
        <mxCell id="RMT1xp3G2gNs8e-a4C3r-18" style="edgeStyle=orthogonalEdgeStyle;rounded=0;orthogonalLoop=1;jettySize=auto;html=1;entryX=0.5;entryY=1;entryDx=0;entryDy=0;entryPerimeter=0;" parent="1" source="RMT1xp3G2gNs8e-a4C3r-15" target="RMT1xp3G2gNs8e-a4C3r-17" edge="1">
          <mxGeometry relative="1" as="geometry" />
        </mxCell>
        <mxCell id="RMT1xp3G2gNs8e-a4C3r-19" value="Mysql:&amp;nbsp;&lt;span style=&quot;font-family: &amp;quot;JetBrains Mono&amp;quot;, monospace; font-size: 9.8pt; background-color: rgb(30, 31, 34); color: rgb(188, 190, 196);&quot;&gt;db_curs-000261_arqmseda_clientes&lt;/span&gt;" style="shape=cylinder3;whiteSpace=wrap;html=1;boundedLbl=1;backgroundOutline=1;size=15;" parent="1" vertex="1">
          <mxGeometry x="-560" y="70" width="220" height="80" as="geometry" />
        </mxCell>
        <mxCell id="RMT1xp3G2gNs8e-a4C3r-21" style="edgeStyle=orthogonalEdgeStyle;rounded=0;orthogonalLoop=1;jettySize=auto;html=1;entryX=0.413;entryY=0.008;entryDx=0;entryDy=0;entryPerimeter=0;" parent="1" source="RMT1xp3G2gNs8e-a4C3r-10" target="RMT1xp3G2gNs8e-a4C3r-1" edge="1">
          <mxGeometry relative="1" as="geometry" />
        </mxCell>
        <mxCell id="xQ3L2eBlVYDOcQQso6A4-2" value="Actor" style="shape=umlActor;verticalLabelPosition=bottom;verticalAlign=top;html=1;outlineConnect=0;" parent="1" vertex="1">
          <mxGeometry x="-110" y="-80" width="30" height="60" as="geometry" />
        </mxCell>
        <mxCell id="xQ3L2eBlVYDOcQQso6A4-3" style="edgeStyle=orthogonalEdgeStyle;rounded=0;orthogonalLoop=1;jettySize=auto;html=1;" parent="1" source="xQ3L2eBlVYDOcQQso6A4-2" target="RMT1xp3G2gNs8e-a4C3r-10" edge="1">
          <mxGeometry relative="1" as="geometry">
            <Array as="points">
              <mxPoint x="-95" y="210" />
              <mxPoint x="-95" y="210" />
            </Array>
          </mxGeometry>
        </mxCell>
        <mxCell id="xQ3L2eBlVYDOcQQso6A4-4" value="POST&amp;nbsp;&lt;span style=&quot;color: rgb(33, 33, 33); font-family: Inter, system-ui, -apple-system, BlinkMacSystemFont, &amp;quot;Segoe UI&amp;quot;, Roboto, Oxygen, Ubuntu, Cantarell, &amp;quot;Fira Sans&amp;quot;, &amp;quot;Droid Sans&amp;quot;, Helvetica, Arial, sans-serif; font-size: 12px; text-align: left; white-space: pre-wrap;&quot;&gt;http://localhost:8084/v1/pedidos&lt;/span&gt;" style="edgeLabel;html=1;align=center;verticalAlign=middle;resizable=0;points=[];" parent="xQ3L2eBlVYDOcQQso6A4-3" vertex="1" connectable="0">
          <mxGeometry x="-0.3025" y="-3" relative="1" as="geometry">
            <mxPoint as="offset" />
          </mxGeometry>
        </mxCell>
        <mxCell id="xQ3L2eBlVYDOcQQso6A4-6" value="&lt;div style=&quot;background-color:#1e1f22;color:#bcbec4&quot;&gt;&lt;pre style=&quot;font-family:&#39;Inter&#39;;font-size:9.8pt;&quot;&gt;ms-integracion-message-query-details&lt;/pre&gt;&lt;/div&gt;" style="ellipse;whiteSpace=wrap;html=1;" parent="1" vertex="1">
          <mxGeometry x="922" y="249" width="237" height="80" as="geometry" />
        </mxCell>
        <mxCell id="xQ3L2eBlVYDOcQQso6A4-7" style="edgeStyle=orthogonalEdgeStyle;rounded=0;orthogonalLoop=1;jettySize=auto;html=1;entryX=0.315;entryY=0.088;entryDx=0;entryDy=0;entryPerimeter=0;" parent="1" source="xQ3L2eBlVYDOcQQso6A4-6" target="RMT1xp3G2gNs8e-a4C3r-5" edge="1">
          <mxGeometry relative="1" as="geometry" />
        </mxCell>
        <mxCell id="xQ3L2eBlVYDOcQQso6A4-9" style="edgeStyle=orthogonalEdgeStyle;rounded=0;orthogonalLoop=1;jettySize=auto;html=1;" parent="1" source="xQ3L2eBlVYDOcQQso6A4-8" target="xQ3L2eBlVYDOcQQso6A4-6" edge="1">
          <mxGeometry relative="1" as="geometry" />
        </mxCell>
        <mxCell id="xQ3L2eBlVYDOcQQso6A4-11" value="GET&amp;nbsp;&lt;span style=&quot;color: rgb(33, 33, 33); font-family: Inter, system-ui, -apple-system, BlinkMacSystemFont, &amp;quot;Segoe UI&amp;quot;, Roboto, Oxygen, Ubuntu, Cantarell, &amp;quot;Fira Sans&amp;quot;, &amp;quot;Droid Sans&amp;quot;, Helvetica, Arial, sans-serif; font-size: 12px; text-align: left; white-space: pre-wrap;&quot;&gt;http://localhost:8089/v1/pedidos/query&lt;/span&gt;&lt;div&gt;&lt;span style=&quot;color: rgb(33, 33, 33); font-family: Inter, system-ui, -apple-system, BlinkMacSystemFont, &amp;quot;Segoe UI&amp;quot;, Roboto, Oxygen, Ubuntu, Cantarell, &amp;quot;Fira Sans&amp;quot;, &amp;quot;Droid Sans&amp;quot;, Helvetica, Arial, sans-serif; font-size: 12px; text-align: left; white-space: pre-wrap;&quot;&gt;&lt;br&gt;&lt;/span&gt;&lt;/div&gt;" style="edgeLabel;html=1;align=center;verticalAlign=middle;resizable=0;points=[];" parent="xQ3L2eBlVYDOcQQso6A4-9" vertex="1" connectable="0">
          <mxGeometry x="-0.1067" relative="1" as="geometry">
            <mxPoint as="offset" />
          </mxGeometry>
        </mxCell>
        <mxCell id="xQ3L2eBlVYDOcQQso6A4-8" value="Actor" style="shape=umlActor;verticalLabelPosition=bottom;verticalAlign=top;html=1;outlineConnect=0;" parent="1" vertex="1">
          <mxGeometry x="1029" y="-9" width="30" height="60" as="geometry" />
        </mxCell>
        <mxCell id="xQ3L2eBlVYDOcQQso6A4-13" value="CQRS" style="text;html=1;align=center;verticalAlign=middle;whiteSpace=wrap;rounded=0;fontStyle=1;fontSize=23;" parent="1" vertex="1">
          <mxGeometry x="-476" y="-160" width="60" height="30" as="geometry" />
        </mxCell>
        <mxCell id="xQ3L2eBlVYDOcQQso6A4-14" style="edgeStyle=orthogonalEdgeStyle;rounded=0;orthogonalLoop=1;jettySize=auto;html=1;entryX=1;entryY=0.5;entryDx=0;entryDy=0;entryPerimeter=0;" parent="1" source="RMT1xp3G2gNs8e-a4C3r-10" target="RMT1xp3G2gNs8e-a4C3r-11" edge="1">
          <mxGeometry relative="1" as="geometry">
            <Array as="points">
              <mxPoint x="-310" y="327" />
              <mxPoint x="-310" y="428" />
            </Array>
          </mxGeometry>
        </mxCell>
        <mxCell id="KOqBi4OoSSzoHojaQv4j-11" style="edgeStyle=orthogonalEdgeStyle;rounded=0;orthogonalLoop=1;jettySize=auto;html=1;" edge="1" parent="1" source="KOqBi4OoSSzoHojaQv4j-13" target="KOqBi4OoSSzoHojaQv4j-16">
          <mxGeometry relative="1" as="geometry">
            <Array as="points">
              <mxPoint x="-317" y="1283" />
              <mxPoint x="-317" y="1283" />
            </Array>
          </mxGeometry>
        </mxCell>
        <mxCell id="KOqBi4OoSSzoHojaQv4j-12" style="edgeStyle=orthogonalEdgeStyle;rounded=0;orthogonalLoop=1;jettySize=auto;html=1;entryX=0;entryY=0.5;entryDx=0;entryDy=0;" edge="1" parent="1" source="KOqBi4OoSSzoHojaQv4j-13" target="KOqBi4OoSSzoHojaQv4j-17">
          <mxGeometry relative="1" as="geometry" />
        </mxCell>
        <mxCell id="KOqBi4OoSSzoHojaQv4j-13" value="&lt;div style=&quot;background-color:#1e1f22;color:#bcbec4&quot;&gt;&lt;pre style=&quot;font-family:&#39;Inter&#39;;font-size:9.8pt;&quot;&gt;ms-negocio-gestion-pedidos&lt;/pre&gt;&lt;/div&gt;" style="ellipse;whiteSpace=wrap;html=1;" vertex="1" parent="1">
          <mxGeometry x="-267" y="1243" width="190" height="80" as="geometry" />
        </mxCell>
        <mxCell id="KOqBi4OoSSzoHojaQv4j-14" value="Mysql:&amp;nbsp;&lt;span style=&quot;font-family: &amp;quot;JetBrains Mono&amp;quot;, monospace; font-size: 9.8pt; background-color: rgb(30, 31, 34); color: rgb(188, 190, 196);&quot;&gt;db_curs-000261_pedidos&lt;/span&gt;" style="shape=cylinder3;whiteSpace=wrap;html=1;boundedLbl=1;backgroundOutline=1;size=15;" vertex="1" parent="1">
          <mxGeometry x="-547" y="1371" width="140" height="80" as="geometry" />
        </mxCell>
        <mxCell id="KOqBi4OoSSzoHojaQv4j-15" style="edgeStyle=orthogonalEdgeStyle;rounded=0;orthogonalLoop=1;jettySize=auto;html=1;" edge="1" parent="1" source="KOqBi4OoSSzoHojaQv4j-16" target="KOqBi4OoSSzoHojaQv4j-20">
          <mxGeometry relative="1" as="geometry" />
        </mxCell>
        <mxCell id="KOqBi4OoSSzoHojaQv4j-16" value="&lt;div style=&quot;background-color:#1e1f22;color:#bcbec4&quot;&gt;&lt;pre style=&quot;font-family:&#39;Inter&#39;;font-size:9.8pt;&quot;&gt;ms-negocio-gestion-clientes&lt;/pre&gt;&lt;/div&gt;" style="ellipse;whiteSpace=wrap;html=1;" vertex="1" parent="1">
          <mxGeometry x="-567" y="1243" width="180" height="80" as="geometry" />
        </mxCell>
        <mxCell id="KOqBi4OoSSzoHojaQv4j-17" value="&lt;div style=&quot;background-color:#1e1f22;color:#bcbec4&quot;&gt;&lt;pre style=&quot;font-family:&#39;Inter&#39;;font-size:9.8pt;&quot;&gt;ms-negocio-gestion-productos&lt;/pre&gt;&lt;/div&gt;" style="ellipse;whiteSpace=wrap;html=1;" vertex="1" parent="1">
          <mxGeometry x="93" y="1243" width="180" height="80" as="geometry" />
        </mxCell>
        <mxCell id="KOqBi4OoSSzoHojaQv4j-18" value="Mysql:&amp;nbsp;&lt;span style=&quot;font-family: &amp;quot;JetBrains Mono&amp;quot;, monospace; font-size: 9.8pt; background-color: light-dark(rgb(30, 31, 34), rgb(209, 210, 212)); color: light-dark(rgb(188, 190, 196), rgb(73, 74, 79));&quot;&gt;db_curs-curs_000261_arqmseda_productos&lt;/span&gt;&lt;span style=&quot;background-color: light-dark(rgb(30, 31, 34), rgb(209, 210, 212)); color: light-dark(rgb(188, 190, 196), rgb(73, 74, 79)); font-family: &amp;quot;JetBrains Mono&amp;quot;, monospace; font-size: 9.8pt;&quot;&gt;s&lt;/span&gt;" style="shape=cylinder3;whiteSpace=wrap;html=1;boundedLbl=1;backgroundOutline=1;size=15;" vertex="1" parent="1">
          <mxGeometry x="369" y="1236" width="250" height="80" as="geometry" />
        </mxCell>
        <mxCell id="KOqBi4OoSSzoHojaQv4j-19" style="edgeStyle=orthogonalEdgeStyle;rounded=0;orthogonalLoop=1;jettySize=auto;html=1;entryX=0;entryY=0;entryDx=0;entryDy=52.5;entryPerimeter=0;" edge="1" parent="1" source="KOqBi4OoSSzoHojaQv4j-17" target="KOqBi4OoSSzoHojaQv4j-18">
          <mxGeometry relative="1" as="geometry" />
        </mxCell>
        <mxCell id="KOqBi4OoSSzoHojaQv4j-20" value="Mysql:&amp;nbsp;&lt;span style=&quot;font-family: &amp;quot;JetBrains Mono&amp;quot;, monospace; font-size: 9.8pt; background-color: rgb(30, 31, 34); color: rgb(188, 190, 196);&quot;&gt;db_curs-000261_arqmseda_clientes&lt;/span&gt;" style="shape=cylinder3;whiteSpace=wrap;html=1;boundedLbl=1;backgroundOutline=1;size=15;" vertex="1" parent="1">
          <mxGeometry x="-587" y="1053" width="220" height="80" as="geometry" />
        </mxCell>
        <mxCell id="KOqBi4OoSSzoHojaQv4j-31" style="edgeStyle=orthogonalEdgeStyle;rounded=0;orthogonalLoop=1;jettySize=auto;html=1;entryX=1;entryY=0.5;entryDx=0;entryDy=0;entryPerimeter=0;" edge="1" parent="1" source="KOqBi4OoSSzoHojaQv4j-13" target="KOqBi4OoSSzoHojaQv4j-14">
          <mxGeometry relative="1" as="geometry">
            <Array as="points">
              <mxPoint x="-337" y="1310" />
              <mxPoint x="-337" y="1411" />
            </Array>
          </mxGeometry>
        </mxCell>
        <mxCell id="KOqBi4OoSSzoHojaQv4j-36" style="edgeStyle=orthogonalEdgeStyle;rounded=0;orthogonalLoop=1;jettySize=auto;html=1;entryX=0;entryY=0.75;entryDx=0;entryDy=0;" edge="1" parent="1" source="KOqBi4OoSSzoHojaQv4j-32" target="KOqBi4OoSSzoHojaQv4j-35">
          <mxGeometry relative="1" as="geometry">
            <Array as="points">
              <mxPoint x="-131" y="1724" />
            </Array>
          </mxGeometry>
        </mxCell>
        <mxCell id="KOqBi4OoSSzoHojaQv4j-38" style="edgeStyle=orthogonalEdgeStyle;rounded=0;orthogonalLoop=1;jettySize=auto;html=1;entryX=0;entryY=0.25;entryDx=0;entryDy=0;" edge="1" parent="1" source="KOqBi4OoSSzoHojaQv4j-32" target="KOqBi4OoSSzoHojaQv4j-37">
          <mxGeometry relative="1" as="geometry">
            <Array as="points">
              <mxPoint x="-98" y="1572" />
            </Array>
          </mxGeometry>
        </mxCell>
        <mxCell id="KOqBi4OoSSzoHojaQv4j-44" style="edgeStyle=orthogonalEdgeStyle;rounded=0;orthogonalLoop=1;jettySize=auto;html=1;" edge="1" parent="1" source="KOqBi4OoSSzoHojaQv4j-32" target="KOqBi4OoSSzoHojaQv4j-17">
          <mxGeometry relative="1" as="geometry" />
        </mxCell>
        <mxCell id="KOqBi4OoSSzoHojaQv4j-32" value="&lt;div style=&quot;background-color:#1e1f22;color:#bcbec4&quot;&gt;&lt;pre style=&quot;font-family:&#39;Inter&#39;;font-size:9.8pt;&quot;&gt;ms-autorizacion-saga-pedidos&lt;/pre&gt;&lt;/div&gt;" style="ellipse;whiteSpace=wrap;html=1;" vertex="1" parent="1">
          <mxGeometry x="-241" y="1624" width="220" height="80" as="geometry" />
        </mxCell>
        <mxCell id="KOqBi4OoSSzoHojaQv4j-33" value="SAGA" style="text;html=1;align=center;verticalAlign=middle;whiteSpace=wrap;rounded=0;" vertex="1" parent="1">
          <mxGeometry x="-84" y="1602" width="60" height="30" as="geometry" />
        </mxCell>
        <mxCell id="KOqBi4OoSSzoHojaQv4j-46" style="edgeStyle=orthogonalEdgeStyle;rounded=0;orthogonalLoop=1;jettySize=auto;html=1;" edge="1" parent="1" source="KOqBi4OoSSzoHojaQv4j-35" target="KOqBi4OoSSzoHojaQv4j-45">
          <mxGeometry relative="1" as="geometry" />
        </mxCell>
        <mxCell id="KOqBi4OoSSzoHojaQv4j-35" value="&lt;div style=&quot;background-color:#1e1f22;color:#bcbec4&quot;&gt;&lt;pre style=&quot;font-family:&#39;JetBrains Mono&#39;,monospace;font-size:9.8pt;&quot;&gt;topic-pedido-autorizacion-pendiente-automatico&lt;/pre&gt;&lt;/div&gt;" style="shape=process;whiteSpace=wrap;html=1;backgroundOutline=1;" vertex="1" parent="1">
          <mxGeometry x="331" y="1680" width="440" height="60" as="geometry" />
        </mxCell>
        <mxCell id="KOqBi4OoSSzoHojaQv4j-37" value="&lt;div style=&quot;background-color: rgb(30, 31, 34); color: rgb(188, 190, 196);&quot;&gt;&lt;pre style=&quot;font-family:&#39;JetBrains Mono&#39;,monospace;font-size:9.8pt;&quot;&gt;&lt;div&gt;&lt;pre style=&quot;font-family:&#39;JetBrains Mono&#39;,monospace;font-size:9.8pt;&quot;&gt;topic-pedido-autorizacion-evaluado&lt;/pre&gt;&lt;/div&gt;&lt;/pre&gt;&lt;/div&gt;" style="shape=process;whiteSpace=wrap;html=1;backgroundOutline=1;" vertex="1" parent="1">
          <mxGeometry x="325" y="1558" width="440" height="60" as="geometry" />
        </mxCell>
        <mxCell id="KOqBi4OoSSzoHojaQv4j-39" value="&lt;div style=&quot;background-color: rgb(30, 31, 34); color: rgb(188, 190, 196);&quot;&gt;&lt;pre style=&quot;font-family:&#39;JetBrains Mono&#39;,monospace;font-size:9.8pt;&quot;&gt;&lt;pre style=&quot;font-family:&#39;JetBrains Mono&#39;,monospace;font-size:9.8pt;&quot;&gt;&lt;div&gt;&lt;pre style=&quot;font-family:&#39;JetBrains Mono&#39;,monospace;font-size:9.8pt;&quot;&gt;topic-pedido-autorizacion-evaluado&lt;/pre&gt;&lt;/div&gt;&lt;/pre&gt;&lt;/pre&gt;&lt;/div&gt;" style="shape=process;whiteSpace=wrap;html=1;backgroundOutline=1;" vertex="1" parent="1">
          <mxGeometry x="331" y="1786" width="440" height="60" as="geometry" />
        </mxCell>
        <mxCell id="KOqBi4OoSSzoHojaQv4j-40" style="edgeStyle=orthogonalEdgeStyle;rounded=0;orthogonalLoop=1;jettySize=auto;html=1;entryX=0.419;entryY=0.944;entryDx=0;entryDy=0;entryPerimeter=0;" edge="1" parent="1" source="KOqBi4OoSSzoHojaQv4j-39" target="KOqBi4OoSSzoHojaQv4j-32">
          <mxGeometry relative="1" as="geometry" />
        </mxCell>
        <mxCell id="KOqBi4OoSSzoHojaQv4j-43" style="edgeStyle=orthogonalEdgeStyle;rounded=0;orthogonalLoop=1;jettySize=auto;html=1;entryX=0.286;entryY=0.048;entryDx=0;entryDy=0;entryPerimeter=0;" edge="1" parent="1" source="KOqBi4OoSSzoHojaQv4j-13" target="KOqBi4OoSSzoHojaQv4j-32">
          <mxGeometry relative="1" as="geometry" />
        </mxCell>
        <mxCell id="KOqBi4OoSSzoHojaQv4j-49" style="edgeStyle=orthogonalEdgeStyle;rounded=0;orthogonalLoop=1;jettySize=auto;html=1;" edge="1" parent="1" source="KOqBi4OoSSzoHojaQv4j-45" target="KOqBi4OoSSzoHojaQv4j-48">
          <mxGeometry relative="1" as="geometry">
            <Array as="points">
              <mxPoint x="1163" y="1937" />
            </Array>
          </mxGeometry>
        </mxCell>
        <mxCell id="KOqBi4OoSSzoHojaQv4j-51" style="edgeStyle=orthogonalEdgeStyle;rounded=0;orthogonalLoop=1;jettySize=auto;html=1;" edge="1" parent="1" source="KOqBi4OoSSzoHojaQv4j-45" target="KOqBi4OoSSzoHojaQv4j-50">
          <mxGeometry relative="1" as="geometry">
            <Array as="points">
              <mxPoint x="1275" y="1796" />
              <mxPoint x="1279" y="1796" />
            </Array>
          </mxGeometry>
        </mxCell>
        <mxCell id="KOqBi4OoSSzoHojaQv4j-45" value="&lt;div style=&quot;background-color: rgb(30, 31, 34); color: rgb(188, 190, 196);&quot;&gt;&lt;pre style=&quot;font-family:&#39;Inter&#39;;font-size:9.8pt;&quot;&gt;&lt;div&gt;&lt;pre style=&quot;font-family:&#39;Inter&#39;;font-size:9.8pt;&quot;&gt;ms-autorizacion-evaluacion-automatica-pedidos&lt;/pre&gt;&lt;/div&gt;&lt;/pre&gt;&lt;/div&gt;" style="ellipse;whiteSpace=wrap;html=1;" vertex="1" parent="1">
          <mxGeometry x="997" y="1673" width="333" height="80" as="geometry" />
        </mxCell>
        <mxCell id="KOqBi4OoSSzoHojaQv4j-47" style="edgeStyle=orthogonalEdgeStyle;rounded=0;orthogonalLoop=1;jettySize=auto;html=1;" edge="1" parent="1" source="KOqBi4OoSSzoHojaQv4j-45" target="KOqBi4OoSSzoHojaQv4j-39">
          <mxGeometry relative="1" as="geometry">
            <mxPoint x="785" y="1825" as="targetPoint" />
            <Array as="points">
              <mxPoint x="1163" y="1825" />
            </Array>
          </mxGeometry>
        </mxCell>
        <mxCell id="KOqBi4OoSSzoHojaQv4j-48" value="&lt;div style=&quot;background-color: rgb(30, 31, 34); color: rgb(188, 190, 196);&quot;&gt;&lt;pre style=&quot;font-family:&#39;JetBrains Mono&#39;,monospace;font-size:9.8pt;&quot;&gt;&lt;pre style=&quot;font-family:&#39;JetBrains Mono&#39;,monospace;font-size:9.8pt;&quot;&gt;&lt;pre style=&quot;font-family:&#39;JetBrains Mono&#39;,monospace;font-size:9.8pt;&quot;&gt;&lt;div&gt;&lt;pre style=&quot;font-family:&#39;JetBrains Mono&#39;,monospace;font-size:9.8pt;&quot;&gt;topic-pedido-autorizacion-pendiente-manual&lt;/pre&gt;&lt;/div&gt;&lt;/pre&gt;&lt;/pre&gt;&lt;/pre&gt;&lt;/div&gt;" style="shape=process;whiteSpace=wrap;html=1;backgroundOutline=1;" vertex="1" parent="1">
          <mxGeometry x="335" y="1907" width="440" height="60" as="geometry" />
        </mxCell>
        <mxCell id="KOqBi4OoSSzoHojaQv4j-50" value="REDIS&lt;div&gt;&lt;br&gt;&lt;/div&gt;" style="shape=cylinder3;whiteSpace=wrap;html=1;boundedLbl=1;backgroundOutline=1;size=15;" vertex="1" parent="1">
          <mxGeometry x="1224" y="1838" width="110" height="80" as="geometry" />
        </mxCell>
        <mxCell id="KOqBi4OoSSzoHojaQv4j-52" value="Actor" style="shape=umlActor;verticalLabelPosition=bottom;verticalAlign=top;html=1;outlineConnect=0;" vertex="1" parent="1">
          <mxGeometry x="-187" y="897" width="30" height="60" as="geometry" />
        </mxCell>
        <mxCell id="KOqBi4OoSSzoHojaQv4j-53" style="edgeStyle=orthogonalEdgeStyle;rounded=0;orthogonalLoop=1;jettySize=auto;html=1;" edge="1" parent="1" source="KOqBi4OoSSzoHojaQv4j-52" target="KOqBi4OoSSzoHojaQv4j-13">
          <mxGeometry relative="1" as="geometry">
            <Array as="points" />
            <mxPoint x="-172" y="1243" as="targetPoint" />
          </mxGeometry>
        </mxCell>
        <mxCell id="KOqBi4OoSSzoHojaQv4j-54" value="POST&amp;nbsp;&lt;span style=&quot;color: rgb(33, 33, 33); font-family: Inter, system-ui, -apple-system, BlinkMacSystemFont, &amp;quot;Segoe UI&amp;quot;, Roboto, Oxygen, Ubuntu, Cantarell, &amp;quot;Fira Sans&amp;quot;, &amp;quot;Droid Sans&amp;quot;, Helvetica, Arial, sans-serif; font-size: 12px; text-align: left; white-space: pre-wrap;&quot;&gt;http://localhost:8084/v1/pedidos&lt;/span&gt;" style="edgeLabel;html=1;align=center;verticalAlign=middle;resizable=0;points=[];" vertex="1" connectable="0" parent="KOqBi4OoSSzoHojaQv4j-53">
          <mxGeometry x="-0.3025" y="-3" relative="1" as="geometry">
            <mxPoint as="offset" />
          </mxGeometry>
        </mxCell>
        <mxCell id="KOqBi4OoSSzoHojaQv4j-56" value="SAGA" style="text;html=1;align=center;verticalAlign=middle;whiteSpace=wrap;rounded=0;fontStyle=1;fontSize=23;" vertex="1" parent="1">
          <mxGeometry x="-525" y="805" width="60" height="30" as="geometry" />
        </mxCell>
      </root>
    </mxGraphModel>
  </diagram>
</mxfile>
